<?xml version="1.0" encoding="utf-8"?>
<!-- Generator: Adobe Illustrator 26.0.1, SVG Export Plug-In . SVG Version: 6.00 Build 0)  -->
<svg version="1.1" id="Layer_1" xmlns="http://www.w3.org/2000/svg" xmlns:xlink="http://www.w3.org/1999/xlink" x="0px" y="0px"
	 viewBox="0 0 1366 768" style="enable-background:new 0 0 1366 768;" xml:space="preserve">
<style type="text/css">
	.st0{fill:#FF1D25;}
	.st1{fill:#ED1C24;}
	.st2{fill:#FF0000;}
</style>
<g>
	<rect x="0.5" y="0.5" width="1365" height="767"/>
	<path d="M1365,1v766H1V1H1365 M1366,0H0v768h1366V0L1366,0z"/>
</g>
<g>
	<path class="st0" d="M1241.96,702.98c-2.87,0-5.38-1.77-6.24-4.39c-0.53-1.6-0.36-3.3,0.44-4.79s2.18-2.58,3.85-3.09
		c0.64-0.19,1.3-0.29,1.97-0.29c2.87,0,5.38,1.77,6.24,4.39c1.08,3.3-0.85,6.83-4.29,7.87
		C1243.29,702.89,1242.62,702.98,1241.96,702.98z"/>
	<path d="M1241.98,690.75L1241.98,690.75c2.72,0,5.1,1.68,5.91,4.17c1.02,3.13-0.8,6.48-4.07,7.46c-0.61,0.18-1.23,0.28-1.87,0.28
		c-2.72,0-5.1-1.68-5.91-4.17c-1.02-3.13,0.8-6.48,4.07-7.46C1240.72,690.84,1241.35,690.75,1241.98,690.75 M1241.98,690.11
		c-0.69,0-1.38,0.1-2.07,0.3c-3.63,1.09-5.64,4.8-4.51,8.27c0.92,2.82,3.63,4.62,6.56,4.62c0.69,0,1.38-0.1,2.07-0.3
		c3.63-1.09,5.65-4.8,4.51-8.27C1247.62,691.91,1244.9,690.11,1241.98,690.11L1241.98,690.11z"/>
</g>
<g>
	<path class="st1" d="M1290.26,664.5c2.97,0,5.39,2.32,5.39,5.17c0,2.85-2.42,5.17-5.39,5.17s-5.39-2.32-5.39-5.17
		C1284.87,666.82,1287.29,664.5,1290.26,664.5 M1290.26,663.21c-3.72,0-6.74,2.9-6.74,6.47s3.02,6.47,6.74,6.47s6.74-2.9,6.74-6.47
		S1293.98,663.21,1290.26,663.21L1290.26,663.21z"/>
</g>
<g>
	<path class="st1" d="M1267.7,683.26c5.01,0,9.09,3.92,9.09,8.73c0,4.81-4.08,8.73-9.09,8.73s-9.09-3.92-9.09-8.73
		C1258.6,687.18,1262.69,683.26,1267.7,683.26 M1267.7,682.61c-5.4,0-9.77,4.2-9.77,9.38s4.37,9.38,9.77,9.38
		c5.4,0,9.77-4.2,9.77-9.38S1273.09,682.61,1267.7,682.61L1267.7,682.61z"/>
</g>
<g>
	<ellipse class="st2" cx="1267.7" cy="725.62" rx="9.77" ry="9.38"/>
</g>
<g>
	<rect x="34.16" y="134.5" class="st0" width="2.19" height="499"/>
	<path d="M36.19,135v498h-1.88V135H36.19 M36.5,134H34v500h2.5V134L36.5,134z"/>
</g>
</svg>
